# xmcd
#
# Track frame offsets:
# 150
# 15227
# 32667
#
# Disc length: 636 seconds
#
#
# Revision: 0
# Processed by: cddbd v1.4PL0 Copyright (c) Steve Scherf et al.
# Submitted via: FreeRIP 2.30 
#
DISCID=13027a03
DTITLE=Bendix Band - Bendix Band Demo
DYEAR=1900
DGENRE=Country
TTITLE0=Get Rhythm
TTITLE1=Ruby
TTITLE2=Lodi
EXTD=
EXTT0=
EXTT1=
EXTT2=
PLAYORDER=
